<svg xmlns="http://www.w3.org/2000/svg" xmlns:xlink="http://www.w3.org/1999/xlink" id="Layer_1" x="0" y="0" version="1.1" viewBox="0 0 48.9 48.8" xml:space="preserve" style="enable-background:new 0 0 48.9 48.8"><style type="text/css">.st0{fill:#6a6363}.st1{fill:#a2c2c6}.st2{fill:#e24e2b}.st3{fill:#f9c2ab}.st4{fill:#fff}.st5{fill:#3b2e2a}.st6{fill:#f6a49d}.st7{fill:#a4a2a4}.st8{fill:#a4351f}</style><g><g><rect width="21.8" height=".4" x="20.5" y="17.2" class="st0" transform="matrix(0.6724 -0.7402 0.7402 0.6724 -2.56 28.9511)"/></g><path d="M41.8,46.9c0,0-2.6,3-8.2,1.6C28.7,47.2,0,36,0,36l1.9-1.2c0,0,31.6,11.3,32.9,11.6 C36.3,46.9,39.2,47.5,41.8,46.9z" class="st1"/><path d="M48.9,42.4c0,0-2.6,3-8.2,1.6C35.7,42.7,7.1,31.5,7.1,31.5l1.9-1.2c0,0,31.6,11.3,32.9,11.6 C43.3,42.4,46.3,43,48.9,42.4z" class="st1"/><path d="M16.2,37.1c0,0,6.6-5,6-9.5c-0.7-5.9-6.6-7.9-6.6-7.9l-8-2.3c0,0-1.2,6.7,10.4,11.5l-3.2,7.7L16.2,37.1z" class="st2"/><path d="M28.6,16l-1.1,2.4c0,0-6.5,2.4-9.4-1.2c-3.3-4,2.6-9.1,2.6-9.1L24,9.7l-2.6,4.5L28.6,16z" class="st2"/><path d="M36.2,11.2l0.9-1.8c0,0-4.6-5.7-9-4c-4.8,1.8-4.8,8-4.8,8l3.7,0.2l2.5-4.3L36.2,11.2z" class="st2"/><path d="M22.3,18.9c0,0,7.5-4.7,7-11.1c-0.3-4.2-7.8-5.2-17.1,4.9L3,16.8c0,0,2.6,7.7,12.8,8c6.2,0.1,9.1-2.7,9.1-2.7 L22.3,18.9z" class="st2"/><path d="M24.2,33.7c0,0,4.5-5.4,3.8-8.9c-0.8-4.4-7.7-6.2-7.7-6.2l-4.7,4.7l9.3,3.3L23,33.4L24.2,33.7z" class="st2"/><g><ellipse cx="29" cy="5" class="st3" rx="2.5" ry="2.1" transform="matrix(0.9709 -0.2393 0.2393 0.9709 -0.3501 7.0764)"/><path d="M30.7,5.1c0,0,2,2-0.2,4.2c-3.2,3.1-9.9,1.5-13-2c2.1,0.2,4.1,0.3,6.5-0.2c1.1-0.2,2.3-0.7,3.3-1.2L30.7,5.1z" class="st4"/><g><path d="M27.4,0.2c-3.7-1-6.6,2.9-9.8,3c3,2.4,7.7,1,8.7,1.6c0.6-0.5,1.5-0.7,2.2-1c1.7-0.5,2.4-0.4,2.4-0.4 C30.8,3.2,30.3,0.9,27.4,0.2z" class="st2"/><path d="M31.1,3.8c0,0,0.1-0.5-0.2-0.8c0,0-0.8-0.5-2.5,0.1c-0.9,0.3-1.7,0.9-2.2,1.6c0,0,0.1,0.4,0.3,0.7 C26.5,5.3,28.8,3.5,31.1,3.8z" class="st4"/></g><path d="M30,5.8c0,0-0.2,0.6-1,0.3c0,0,0.3,0.5,0.7,0.4C30.1,6.3,30,5.8,30,5.8z" class="st5"/><path d="M29.9,4.3c0,0,0.3-0.4,0.7-0.4c0,0-0.3-0.2-0.5,0C29.8,4.1,29.9,4.3,29.9,4.3z" class="st5"/><path d="M28.4,4.9c0,0-0.4-0.3-0.8-0.1c0,0,0.2-0.3,0.5-0.2C28.3,4.6,28.4,4.9,28.4,4.9z" class="st5"/><circle cx="17.3" cy="2.6" r=".8" class="st2"/><path d="M28.9,5.2c-0.8-0.1-1.6,0.2-2.3,0.5c-0.4,0.2-0.9,0.4-1.4,0.3c0.3,0.3,0.9,1,2.4,0.8c0.7-0.1,1.3-0.9,1.6-1.4 L28.9,5.2z" class="st4"/><path d="M29.7,4.9c0.4-0.3,0.9-0.4,1.4-0.4c0.5,0,1.1-0.1,1.5-0.4c0.1,1.2-1,1.7-1.7,1.7c-0.5,0-0.9-0.2-1.3-0.5 L29.7,4.9z" class="st4"/><ellipse cx="29.3" cy="5" class="st6" rx=".8" ry=".8"/><path d="M28.8,6.1c0,0-0.9,1.2-2.5,0.7c0,0,0.5,0.5,1.3,0.3C28.5,6.8,28.8,6.1,28.8,6.1z" class="st7"/><path d="M30.1,5.6c0,0,0.6,0.5,1.8-0.1c0,0-0.4,0.4-1,0.5C30.4,6,30.1,5.6,30.1,5.6z" class="st7"/></g><path d="M21.5,18.9C21.5,18.9,21.4,18.9,21.5,18.9c-0.1,0-0.1,0-0.1,0c-0.1,0-0.2-0.1-0.3-0.1c-0.1,0-0.3-0.1-0.5-0.2 c-0.2-0.1-0.4-0.2-0.7-0.3c-0.2-0.1-0.5-0.2-0.7-0.4c-0.3-0.2-0.5-0.3-0.7-0.6c-0.2-0.2-0.5-0.5-0.7-0.7s-0.4-0.6-0.5-0.9 c0-0.1-0.1-0.2-0.1-0.2l0-0.1l0-0.1v0c0,0,0,0,0,0l0,0l0,0l0,0l0-0.1c0,0,0-0.1,0-0.1c0-0.1,0-0.2,0-0.2c0-0.3-0.1-0.7,0-1 c0-0.3,0.1-0.6,0.2-0.9s0.2-0.5,0.3-0.7c0.1-0.2,0.3-0.4,0.4-0.6c0.1-0.2,0.3-0.3,0.4-0.4c0.1-0.1,0.2-0.2,0.3-0.2 c0,0,0.1,0,0.1-0.1c0,0,0,0,0,0l0,0c0,0,0-0.1,0-0.1c0,0-0.1,0-0.1,0c0,0,0,0,0,0c0,0,0,0-0.1,0.1c-0.1,0.1-0.2,0.1-0.3,0.2 c-0.1,0.1-0.3,0.2-0.4,0.4c-0.1,0.2-0.3,0.4-0.4,0.6c0,0.1-0.1,0.1-0.1,0.2s-0.1,0.1-0.1,0.2c0,0.1-0.1,0.1-0.1,0.2 c0,0,0,0.1,0,0.1c0,0,0,0,0,0.1c0,0,0,0,0,0.1c-0.1,0.3-0.2,0.6-0.2,1c0,0.3,0,0.7,0,1c0,0.1,0,0.2,0,0.3c0,0,0,0.1,0,0.1l0,0.1 l0,0l0,0l0,0l0,0v0l0,0.1l0,0.1c0,0.1,0.1,0.2,0.1,0.3c0.1,0.3,0.3,0.7,0.5,0.9c0.2,0.3,0.5,0.5,0.7,0.8c0.3,0.2,0.5,0.4,0.8,0.6 c0.3,0.2,0.5,0.3,0.8,0.4c0.2,0.1,0.5,0.2,0.7,0.2c0.2,0.1,0.4,0.1,0.5,0.1c0.2,0,0.3,0.1,0.4,0.1C21.4,19,21.4,19,21.5,18.9 C21.4,19,21.4,19,21.5,18.9C21.5,19,21.5,19,21.5,18.9C21.5,19,21.5,18.9,21.5,18.9L21.5,18.9z" class="st8"/><path d="M26.2,15.3c0,0-0.1,0-0.2-0.1c-0.1,0-0.1,0-0.2-0.1c-0.1,0-0.1-0.1-0.2-0.1c-0.1,0-0.2-0.1-0.3-0.1 c-0.1,0-0.2-0.1-0.3-0.1c-0.2-0.1-0.4-0.1-0.7-0.2c-0.2-0.1-0.5-0.1-0.7-0.2c-0.1,0-0.2-0.1-0.3-0.1c-0.1,0-0.2,0-0.3-0.1 c-0.1,0-0.2,0-0.2-0.1c-0.1,0-0.1,0-0.2,0c-0.1,0-0.2,0-0.2,0c0,0,0,0,0,0c0,0,0,0,0,0c0,0,0.1,0,0.2,0.1c0.1,0,0.1,0,0.2,0.1 c0.1,0,0.1,0.1,0.2,0.1c0.1,0,0.2,0.1,0.3,0.1c0.1,0,0.2,0.1,0.3,0.1c0.2,0.1,0.4,0.1,0.7,0.2c0.2,0.1,0.5,0.1,0.7,0.2 c0.1,0,0.2,0.1,0.3,0.1c0.1,0,0.2,0,0.3,0.1c0.1,0,0.2,0,0.2,0.1s0.1,0,0.2,0C26.1,15.4,26.2,15.4,26.2,15.3 C26.2,15.4,26.2,15.4,26.2,15.3C26.2,15.3,26.2,15.3,26.2,15.3z" class="st8"/><path d="M18.5,41.9c-0.5,0.6-3.8-2.3-3.8-2.3l-0.3,0.6L13,39.7c0,0,0.8-2.7,1.9-4l2.3,0.9l-1.2,2.2 C15.9,38.8,18.8,41.5,18.5,41.9z" class="st0"/><path d="M26.5,37.9C26,38.5,23,35.9,23,35.9l-0.1,0.7L21.3,36c0,0,0.5-1.9,1.5-3.4l2,0.8l-0.6,1.6 C24.2,34.9,26.8,37.5,26.5,37.9z" class="st0"/><g><rect width="38.6" height=".4" x="-1.2" y="29.6" class="st0" transform="matrix(0.6684 -0.7438 0.7438 0.6684 -16.1971 23.3344)"/><path d="M7.7,44.6c0.2,0,0.3-0.1,0.4-0.2c0.1-0.1,0.2-0.4-0.1-1c-0.2-0.4-0.6-0.8-1-1.2c-0.4-0.4-0.9-0.7-1.3-0.8 c-0.6-0.2-0.8-0.1-1,0l0,0c-0.1,0.1-0.2,0.4,0.1,1c0.2,0.4,0.6,0.8,1,1.2c0.4,0.4,0.9,0.7,1.3,0.8C7.4,44.6,7.6,44.6,7.7,44.6z M5.1,41.7c0.1,0,0.3,0,0.5,0.1c0.4,0.1,0.8,0.4,1.2,0.8c0.4,0.4,0.7,0.7,1,1.1c0.2,0.3,0.2,0.5,0.2,0.6c-0.1,0.1-0.3,0.1-0.6-0.1 C6.9,44,6.4,43.7,6,43.4c-0.4-0.4-0.7-0.7-1-1.1c-0.2-0.3-0.2-0.5-0.2-0.6l0,0C5,41.7,5,41.7,5.1,41.7z" class="st0"/></g><path d="M26.5,16.6c-0.5,1.3,0.2,2.4,0.8,2.4c0.6-0.1,1-0.8,1.3-1.6c0.3-0.8,0.5-1.6,0-2.1 C28.2,14.9,27,15.4,26.5,16.6z" class="st4"/><path d="M35,9.3c0.6-1.3,1.9-1.6,2.2-1.1c0.4,0.5,0.1,1.3-0.2,2.1c-0.4,0.8-0.8,1.5-1.5,1.5C35,11.8,34.4,10.6,35,9.3z" class="st4"/><g><ellipse cx="37.2" cy="10.7" class="st2" rx="1.6" ry="1.2" transform="matrix(0.2668 -0.9637 0.9637 0.2668 16.9846 43.6687)"/></g><g><ellipse cx="29.1" cy="17.3" class="st2" rx="1.7" ry="1.3" transform="matrix(0.4493 -0.8934 0.8934 0.4493 0.5682 35.529)"/></g></g></svg>